<?xml version="1.0" standalone="no"?>
<!DOCTYPE svg PUBLIC "-//W3C//DTD SVG 20010904//EN"
 "http://www.w3.org/TR/2001/REC-SVG-20010904/DTD/svg10.dtd">
<svg version="1.0" xmlns="http://www.w3.org/2000/svg"
 width="1599.000000pt" height="1599.000000pt" viewBox="0 0 1599.000000 1599.000000"
 preserveAspectRatio="xMidYMid meet">

<g transform="translate(0.000000,1599.000000) scale(0.100000,-0.100000)"
fill="#000000" stroke="none">
<path d="M5467 12303 c-12 -11 -8 -451 3 -458 6 -4 17 -1 25 5 12 10 15 51 15
224 0 152 -3 215 -12 224 -14 14 -22 15 -31 5z"/>
<path d="M5535 11797 c-3 -6 -4 -183 -3 -392 l3 -380 70 -8 c355 -41 606 -206
758 -495 278 -529 -37 -1182 -631 -1307 -40 -8 -95 -15 -122 -15 -87 0 -80 35
-80 -395 0 -319 2 -385 14 -394 21 -17 237 3 252 23 5 8 20 82 33 163 l23 149
61 17 c45 12 65 13 75 5 7 -6 54 -62 104 -125 75 -93 95 -112 112 -108 12 3
71 31 131 61 139 69 265 157 265 184 0 11 -22 78 -50 148 -27 71 -50 135 -50
143 0 8 20 34 44 58 l43 42 142 -55 c78 -31 148 -56 156 -56 39 0 255 375 241
416 -4 11 -58 60 -121 109 -63 50 -115 97 -115 105 0 8 6 38 12 68 10 39 18
54 33 57 11 3 81 14 155 25 94 13 138 24 146 35 30 41 25 456 -5 475 -7 4 -69
15 -139 25 -184 27 -173 21 -192 92 -9 34 -14 66 -11 70 3 5 59 50 124 102 64
51 117 99 117 108 0 46 -201 394 -236 407 -7 3 -75 -20 -151 -50 -76 -29 -143
-54 -148 -54 -6 0 -31 20 -55 45 -51 52 -53 31 21 222 21 56 39 110 39 120 0
36 -345 244 -402 243 -17 -1 -48 -33 -118 -121 -83 -105 -98 -119 -120 -115
-38 7 -101 24 -106 28 -2 3 -14 73 -27 156 -14 84 -27 155 -31 159 -21 21
-254 31 -261 10z m193 -43 l30 -6 17 -117 c19 -131 31 -190 39 -198 3 -3 45
-16 93 -29 l88 -23 28 32 c16 18 62 74 103 124 l75 93 37 -15 c71 -30 312
-176 312 -190 0 -1 -25 -65 -55 -141 -30 -77 -55 -144 -55 -149 0 -6 31 -41
69 -79 l69 -68 148 57 147 58 19 -23 c58 -72 178 -290 178 -323 0 -7 -52 -52
-115 -102 -63 -49 -117 -96 -120 -103 -7 -18 36 -175 52 -188 7 -6 37 -14 66
-18 115 -14 203 -29 223 -36 19 -8 22 -19 29 -103 10 -136 -3 -295 -24 -301
-9 -3 -79 -15 -156 -27 -77 -11 -142 -23 -144 -25 -4 -3 -51 -174 -51 -186 0
-3 54 -50 120 -103 66 -54 120 -104 120 -111 0 -40 -165 -319 -195 -330 -8 -3
-73 17 -145 45 -71 28 -138 51 -149 51 -18 0 -141 -120 -141 -138 0 -6 24 -73
54 -149 49 -126 53 -139 38 -156 -39 -45 -307 -194 -332 -185 -4 2 -49 56
-100 121 -51 64 -99 117 -107 117 -7 0 -52 -10 -98 -21 -57 -14 -86 -27 -89
-38 -2 -9 -14 -80 -26 -158 -25 -161 -15 -149 -135 -155 l-60 -3 -3 207 -2
206 77 7 c284 24 542 139 746 334 195 186 328 430 373 684 18 105 18 333 0
430 -34 177 -109 355 -212 502 -68 97 -214 239 -314 306 -163 108 -342 177
-518 200 -48 6 -102 13 -119 15 l-33 5 0 204 0 205 59 0 c32 0 72 -3 89 -6z
m67 -484 c179 -36 329 -104 477 -215 458 -345 603 -978 340 -1489 -183 -357
-556 -610 -946 -642 l-87 -7 3 114 3 113 86 12 c410 54 739 358 824 760 32
149 21 348 -27 489 -126 366 -441 617 -830 660 l-58 6 0 108 c0 59 3 111 7
114 8 9 98 -1 208 -23z"/>
<path d="M5010 11783 c-96 -11 -256 -75 -450 -182 -19 -11 -62 -24 -95 -30
-127 -23 -165 -90 -165 -290 0 -107 -12 -126 -92 -136 -76 -10 -131 -39 -183
-98 -58 -63 -126 -203 -161 -327 -24 -86 -30 -97 -63 -118 -20 -13 -47 -40
-61 -60 -21 -31 -25 -49 -25 -113 0 -71 3 -81 58 -193 31 -65 57 -128 57 -141
0 -15 -15 -38 -38 -60 -69 -64 -76 -129 -36 -361 14 -82 29 -214 33 -294 9
-159 26 -223 83 -318 72 -119 201 -250 371 -377 42 -31 77 -61 77 -66 0 -4 25
-34 56 -65 136 -136 317 -160 544 -72 146 58 334 183 473 317 l57 55 0 1382 0
1382 -47 46 c-97 96 -232 137 -393 119z m232 -73 c32 -12 79 -41 108 -66 l50
-46 0 -360 0 -361 -61 -116 c-106 -199 -222 -364 -339 -482 -91 -92 -117 -112
-192 -148 -49 -24 -88 -46 -88 -51 0 -4 6 -12 13 -18 16 -14 102 20 179 71
127 85 337 346 437 544 18 34 36 65 41 68 6 4 10 -343 10 -934 l0 -940 -70
-62 c-106 -95 -234 -183 -345 -238 -147 -73 -193 -86 -310 -86 -90 0 -106 3
-160 29 -102 50 -183 156 -244 315 -88 233 -20 421 189 526 72 36 174 70 235
80 l40 6 18 -61 c17 -60 39 -82 58 -63 7 7 5 26 -6 59 -9 27 -21 90 -26 139
-11 97 -19 115 -44 95 -11 -9 -14 -28 -12 -69 l2 -56 -51 -6 c-75 -9 -203 -54
-270 -95 -202 -121 -265 -320 -180 -563 15 -42 20 -69 13 -65 -81 46 -261 232
-319 330 -58 97 -78 171 -78 289 0 53 -13 164 -30 270 -44 264 -40 305 34 373
53 50 50 86 -21 225 -53 104 -57 117 -57 182 -1 85 16 114 89 149 124 61 366
30 463 -59 42 -38 39 -58 -13 -79 -46 -19 -47 -46 -2 -46 42 0 108 42 170 108
46 50 61 92 33 92 -8 0 -35 -21 -59 -47 l-44 -46 -36 40 c-71 78 -243 130
-389 118 -57 -5 -78 -3 -78 5 0 26 63 197 93 254 45 87 120 159 179 174 26 7
56 12 67 12 32 0 69 21 88 49 13 19 19 57 24 151 3 75 12 138 20 155 45 92
204 99 333 14 41 -28 112 -106 119 -133 1 -4 -20 -16 -47 -27 -56 -21 -117
-74 -109 -95 8 -21 27 -17 68 16 48 38 97 51 182 48 62 -3 68 -1 68 17 0 16
-9 21 -48 27 -27 4 -50 8 -51 10 -53 90 -155 188 -220 213 -26 10 -46 21 -46
24 0 10 100 67 176 99 40 17 105 38 145 47 41 9 79 19 84 21 27 10 166 -6 217
-26z"/>
<path d="M4460 11100 c-25 -15 -2 -35 77 -68 199 -81 298 -191 312 -346 5 -56
10 -71 23 -74 41 -8 32 133 -14 224 -33 66 -127 156 -208 199 -89 46 -173 75
-190 65z"/>
<path d="M4069 10208 c-19 -71 -7 -196 24 -261 46 -93 159 -174 253 -180 33
-2 39 1 39 17 0 15 -11 23 -47 32 -64 16 -130 56 -168 101 -45 55 -63 127 -59
236 4 80 2 92 -13 95 -13 2 -20 -8 -29 -40z"/>
<path d="M4975 9889 c-9 -50 1 -171 21 -259 26 -116 104 -253 133 -235 18 10
13 32 -19 82 -17 26 -40 77 -50 112 -23 73 -44 242 -36 283 7 36 -2 58 -24 58
-14 0 -20 -11 -25 -41z"/>
<path d="M4832 9215 c-70 -76 -102 -148 -105 -233 -2 -61 0 -67 18 -67 17 0
21 9 27 62 9 84 37 142 97 206 28 30 51 61 51 70 0 33 -39 16 -88 -38z"/>
<path d="M3713 11564 c-4 -11 39 -61 148 -170 85 -85 160 -154 167 -154 7 0
15 7 19 16 4 11 -39 61 -148 170 -85 85 -160 154 -167 154 -7 0 -15 -7 -19
-16z"/>
<path d="M7084 11430 c-145 -146 -177 -190 -137 -190 28 0 325 304 317 324 -3
9 -12 16 -18 16 -7 0 -80 -68 -162 -150z"/>
<path d="M2992 9808 c3 -23 3 -23 224 -26 196 -2 222 -1 228 14 3 9 4 20 0 25
-3 5 -106 9 -230 9 l-225 0 3 -22z"/>
<path d="M7532 9808 l3 -23 225 0 c218 0 225 1 225 20 0 19 -8 20 -228 23
l-228 2 3 -22z"/>
<path d="M3861 8216 c-109 -109 -152 -159 -148 -170 4 -9 12 -16 18 -16 20 0
320 303 317 320 -7 36 -42 11 -187 -134z"/>
<path d="M6930 8352 c0 -9 70 -87 155 -172 147 -147 156 -154 172 -137 17 16
10 25 -137 172 -146 147 -190 178 -190 137z"/>
<path d="M5925 8296 c-36 -41 -171 -59 -435 -60 -226 0 -340 11 -429 41 -63
21 -70 9 -42 -77 30 -91 40 -180 41 -368 0 -84 5 -173 11 -197 10 -40 16 -46
58 -62 30 -11 63 -36 95 -71 27 -29 71 -64 97 -78 43 -21 62 -24 159 -24 99 0
116 3 161 25 48 25 139 107 139 126 0 5 7 9 15 9 33 0 85 34 96 64 7 18 15
128 19 261 7 222 8 233 39 323 17 52 29 98 25 103 -9 15 -28 10 -49 -15z
m-685 -102 c126 -15 323 -17 440 -5 41 4 77 7 79 5 6 -5 -134 -72 -209 -98
-41 -15 -105 -34 -143 -42 -72 -15 -248 -18 -282 -5 -13 5 -24 28 -36 77 -25
95 -24 98 9 89 15 -4 79 -13 142 -21z m646 -19 c-4 -14 -9 -46 -13 -73 -7 -59
-11 -64 -86 -105 -207 -114 -382 -168 -536 -166 -147 2 -145 0 -149 89 l-3 75
128 -3 c105 -3 143 0 210 17 113 29 221 72 338 135 55 30 104 54 109 55 4 1 5
-10 2 -24z m-43 -351 c-40 -31 -264 -135 -353 -164 -111 -36 -280 -59 -331
-44 -30 9 -35 15 -46 59 -6 28 -12 64 -12 80 l-1 30 153 0 c150 0 153 1 267
40 63 21 165 64 225 95 l110 56 3 -69 c2 -57 0 -72 -15 -83z m17 -85 c0 -50
-21 -118 -39 -124 -33 -10 -209 -25 -296 -24 -76 1 -84 2 -55 10 70 19 218 81
295 124 44 25 83 45 88 45 4 0 7 -14 7 -31z m-150 -201 c0 -12 -63 -56 -110
-77 -60 -27 -171 -28 -232 -2 -42 18 -108 66 -108 79 0 4 101 7 225 7 124 0
225 -3 225 -7z"/>
<path d="M8347 7003 c-17 -17 -2 -23 58 -23 l65 0 0 -245 c0 -135 -2 -245 -4
-245 -3 0 -19 13 -36 29 -139 126 -378 6 -435 -218 -20 -78 -14 -138 25 -219
38 -81 90 -135 162 -172 97 -48 174 -37 251 38 l37 36 0 -42 0 -42 130 0 c107
0 130 3 130 15 0 10 -16 15 -60 17 l-61 3 1 521 c0 287 -2 529 -6 538 -5 14
-25 16 -128 16 -68 0 -126 -3 -129 -7z m30 -483 c18 -11 46 -38 63 -61 l30
-42 0 -192 0 -191 -30 -42 c-43 -57 -90 -84 -150 -85 -99 -2 -131 63 -138 273
-6 194 8 282 53 327 29 29 39 33 87 33 35 0 64 -7 85 -20z"/>
<path d="M2060 6991 c0 -14 34 -23 78 -21 20 1 43 2 50 1 10 -1 12 -109 10
-523 l-3 -523 -67 -3 c-38 -2 -68 -7 -68 -12 0 -11 757 -14 784 -4 14 5 16 29
16 166 0 151 -10 195 -24 111 -24 -135 -84 -233 -154 -253 -21 -5 -103 -10
-184 -10 l-148 0 0 275 0 275 80 0 c120 0 151 -22 166 -121 15 -90 24 -40 24
131 0 171 -9 221 -24 129 -15 -96 -47 -119 -167 -119 l-79 0 2 242 3 243 148
-3 c156 -2 182 -8 224 -54 31 -33 60 -104 69 -165 12 -96 24 -55 24 85 0 94
-4 142 -12 150 -15 15 -748 18 -748 3z"/>
<path d="M9535 6990 c-3 -5 -3 -10 2 -11 4 0 35 -1 68 -2 l60 -2 0 -525 0
-525 -60 -3 c-33 -2 -64 -7 -69 -13 -6 -5 43 -9 132 -9 83 0 142 4 142 10 0 5
-27 10 -60 12 l-60 3 -1 499 c0 274 2 500 4 502 2 3 84 -228 183 -511 98 -283
183 -514 188 -512 5 2 29 59 52 128 23 68 83 243 134 389 50 146 109 319 132
385 22 66 44 124 49 129 5 6 9 -203 9 -502 l0 -512 -65 0 c-37 0 -65 -4 -65
-10 0 -6 75 -10 205 -10 123 0 205 4 205 10 0 5 -28 10 -62 12 l-63 3 0 525 0
525 63 -3 c51 -3 62 -1 62 12 0 14 -19 16 -145 16 l-145 0 -11 -27 c-6 -16
-42 -118 -79 -228 -113 -330 -200 -578 -205 -583 -2 -3 -8 6 -13 19 -23 61
-70 191 -137 384 -41 116 -92 260 -113 320 l-40 110 -145 3 c-92 2 -148 -1
-152 -8z"/>
<path d="M12295 6765 l-60 -32 -3 -91 c-2 -63 -7 -92 -15 -93 -7 -1 -30 -2
-51 -3 -65 -2 -57 -26 8 -26 l55 0 3 -263 3 -264 27 -40 c37 -56 94 -78 184
-70 43 3 76 12 93 24 28 20 59 74 63 110 5 37 -15 30 -26 -10 -29 -102 -136
-127 -186 -45 -19 31 -20 51 -20 296 l0 262 75 0 c57 0 75 3 75 14 0 10 -17
13 -62 14 -35 0 -69 1 -75 1 -10 1 -13 32 -13 120 0 66 -3 122 -7 124 -5 3
-35 -10 -68 -28z"/>
<path d="M5925 6557 c-92 -37 -144 -88 -191 -183 -26 -53 -29 -69 -29 -154 0
-84 3 -102 28 -152 94 -191 322 -248 470 -117 56 48 108 149 79 149 -5 0 -17
-18 -27 -40 -23 -52 -100 -124 -151 -140 -89 -30 -163 -13 -204 47 -23 34 -25
47 -28 175 l-4 138 207 0 208 0 -5 43 c-10 83 -67 168 -144 213 -53 31 -159
42 -209 21z m171 -53 c33 -34 34 -39 34 -114 0 -62 -3 -79 -16 -84 -9 -3 -67
-6 -130 -6 l-114 0 0 68 c0 73 25 142 57 161 10 6 44 11 77 11 54 0 61 -3 92
-36z"/>
<path d="M6630 6557 c-51 -19 -64 -28 -114 -75 -25 -24 -58 -68 -73 -100 -25
-51 -28 -67 -28 -162 0 -89 3 -112 23 -151 33 -67 83 -121 143 -154 48 -27 63
-30 139 -30 76 0 91 3 140 31 59 33 124 114 135 169 6 29 6 29 -10 10 -8 -11
-30 -42 -48 -70 -40 -61 -99 -102 -168 -115 -144 -27 -204 54 -197 271 l3 94
209 3 209 2 -6 39 c-7 57 -53 140 -100 183 -67 61 -176 84 -257 55z m155 -33
c31 -20 55 -82 55 -142 0 -80 -6 -83 -145 -80 l-120 3 -3 47 c-4 65 14 126 48
160 25 24 36 28 85 28 34 0 65 -6 80 -16z"/>
<path d="M9060 6561 c-155 -51 -257 -227 -230 -397 18 -108 84 -205 174 -252
44 -23 63 -27 136 -27 69 0 93 4 127 23 58 30 112 86 135 139 20 45 15 74 -6
39 -69 -115 -121 -160 -207 -176 -142 -27 -199 47 -199 261 l0 109 208 2 207
3 -2 37 c-5 80 -80 185 -160 223 -41 20 -145 29 -183 16z m154 -47 c29 -30 46
-80 46 -140 0 -71 -8 -75 -145 -72 l-120 3 -3 40 c-6 73 7 122 42 160 31 32
38 35 93 35 52 0 64 -4 87 -26z"/>
<path d="M11730 6559 c-84 -25 -139 -101 -140 -192 0 -104 47 -151 190 -187
152 -38 200 -74 200 -150 0 -72 -74 -124 -176 -123 -98 1 -165 49 -199 145
-18 50 -27 29 -26 -62 0 -49 0 -93 1 -97 0 -5 12 6 25 22 21 26 27 28 42 18
48 -34 84 -46 144 -51 89 -6 164 26 206 89 38 58 45 164 15 232 -27 62 -72 89
-212 127 -63 17 -123 39 -132 47 -22 20 -23 80 -3 107 44 58 148 76 213 36 36
-22 70 -70 79 -112 12 -56 23 -25 23 62 0 91 -6 103 -35 74 -14 -15 -19 -15
-53 2 -45 21 -115 27 -162 13z"/>
<path d="M12920 6561 c-150 -46 -258 -228 -232 -389 28 -167 141 -279 292
-289 134 -10 256 72 294 195 11 34 -11 27 -30 -10 -52 -102 -135 -159 -235
-161 -69 -2 -103 18 -134 79 -17 33 -20 59 -20 164 l0 125 205 5 205 5 -2 33
c-2 59 -58 157 -111 195 -70 52 -159 70 -232 48z m139 -36 c35 -18 61 -78 61
-143 0 -80 -6 -83 -145 -80 l-120 3 -3 30 c-8 68 8 134 42 170 30 31 39 35 85
35 29 0 65 -7 80 -15z"/>
<path d="M3418 6550 c-57 -10 -105 -38 -147 -85 l-30 -35 -3 53 -3 52 -122 3
c-76 2 -123 -1 -123 -7 0 -6 24 -11 53 -13 l52 -3 0 -295 0 -295 -52 -3 c-29
-2 -53 -7 -53 -13 0 -5 71 -9 175 -9 110 0 175 4 175 10 0 6 -22 10 -50 10
l-50 0 0 228 c0 214 1 229 21 262 49 79 133 124 187 98 47 -23 53 -63 50 -337
l-3 -246 -52 -3 c-29 -2 -53 -7 -53 -13 0 -5 71 -9 175 -9 110 0 175 4 175 10
0 6 -23 10 -51 10 l-50 0 3 233 3 232 30 44 c38 56 109 96 155 86 62 -14 65
-29 65 -325 l0 -265 -52 -3 c-29 -2 -53 -7 -53 -13 0 -5 71 -9 175 -9 104 0
175 4 175 9 0 6 -24 11 -52 13 l-53 3 -5 275 c-4 243 -7 278 -23 301 -24 36
-71 54 -139 53 -78 -1 -139 -27 -187 -80 -45 -48 -51 -52 -51 -29 0 29 -30 74
-58 89 -38 19 -99 26 -154 16z"/>
<path d="M4574 6546 c-17 -7 -47 -30 -67 -50 l-36 -35 -3 37 -3 37 -117 0
c-72 0 -118 -4 -118 -10 0 -5 22 -11 50 -13 l50 -3 0 -514 0 -514 -52 -3 c-30
-2 -53 -8 -56 -15 -3 -10 36 -13 172 -13 150 0 176 2 176 15 0 11 -12 15 -50
15 l-50 0 0 235 0 235 45 -35 c25 -19 61 -37 81 -41 123 -23 259 59 323 195
22 47 26 70 26 146 0 76 -4 99 -26 146 -34 73 -85 128 -149 163 -62 34 -149
44 -196 22z m163 -53 c33 -41 43 -106 43 -278 0 -173 -10 -237 -44 -279 -19
-24 -32 -30 -79 -34 -48 -4 -63 0 -101 22 -81 47 -86 65 -86 287 0 217 3 230
74 284 67 51 152 50 193 -2z"/>
<path d="M11005 6545 c-44 -16 -95 -65 -95 -93 0 -33 29 -62 64 -62 17 0 37 5
44 12 17 17 15 59 -4 87 -24 33 -6 45 74 49 56 3 71 1 92 -16 24 -19 25 -26
28 -140 l4 -120 -59 -7 c-192 -24 -314 -121 -300 -241 6 -58 30 -92 80 -115
78 -35 182 -21 244 34 28 25 37 29 41 17 3 -8 18 -27 33 -42 22 -23 37 -28 74
-28 77 0 155 46 155 92 0 15 -7 11 -31 -17 -35 -39 -72 -46 -89 -16 -6 12 -10
114 -10 263 0 282 -4 297 -80 336 -36 18 -60 22 -135 22 -51 -1 -107 -7 -130
-15z m205 -428 c0 -136 -3 -143 -77 -181 -85 -43 -153 14 -153 130 0 89 49
145 142 163 94 19 88 27 88 -112z"/>
<path d="M5371 6527 c-24 -12 -50 -32 -59 -44 -21 -34 -32 -28 -32 17 l0 40
-125 0 c-77 0 -125 -4 -125 -10 0 -5 25 -10 55 -10 l55 0 0 -300 0 -300 -55 0
c-30 0 -55 -4 -55 -10 0 -6 68 -10 185 -10 110 0 185 4 185 10 0 5 -26 10 -57
12 l-58 3 -3 220 c-3 239 2 276 45 320 71 71 220 91 154 21 -48 -51 -14 -126
59 -126 97 0 111 128 19 176 -43 22 -136 18 -188 -9z"/>
<path d="M7485 6529 c-22 -12 -57 -40 -77 -62 l-38 -42 0 58 0 57 -125 0 c-77
0 -125 -4 -125 -10 0 -5 25 -10 55 -10 l55 0 0 -300 0 -300 -55 0 c-30 0 -55
-4 -55 -10 0 -6 69 -10 187 -10 117 0 183 4 178 9 -6 6 -32 11 -60 13 l-50 3
-3 205 c-2 123 1 219 7 241 6 20 29 57 52 82 46 54 98 75 141 58 55 -21 57
-34 58 -311 0 -140 0 -261 0 -267 0 -9 -18 -13 -55 -13 -30 0 -55 -4 -55 -10
0 -6 68 -10 185 -10 110 0 185 4 185 10 0 5 -26 10 -57 12 l-58 3 -5 276 c-5
259 -6 278 -25 299 -31 35 -78 50 -152 50 -48 -1 -80 -7 -108 -21z"/>
<path d="M13730 6534 c-19 -8 -50 -29 -67 -46 l-33 -32 0 42 0 42 -125 0 c-72
0 -125 -4 -125 -9 0 -6 24 -11 53 -13 l52 -3 0 -295 0 -295 -52 -3 c-29 -2
-53 -7 -53 -13 0 -5 73 -9 180 -9 113 0 180 4 180 10 0 6 -25 10 -55 10 l-55
0 0 243 0 244 29 40 c32 45 101 83 147 83 42 0 48 -10 22 -37 -27 -29 -29 -84
-3 -113 24 -26 95 -28 118 -2 42 47 23 127 -38 156 -42 20 -129 20 -175 0z"/>
<path d="M4650 5635 l0 -55 4660 0 4660 0 0 55 0 55 -4660 0 -4660 0 0 -55z"/>
</g>
</svg>
